<?xml version="1.0" encoding="utf-8"?>
<!-- Generator: Adobe Illustrator 23.0.1, SVG Export Plug-In . SVG Version: 6.00 Build 0)  -->
<svg version="1.1" id="Layer_1" xmlns="http://www.w3.org/2000/svg" xmlns:xlink="http://www.w3.org/1999/xlink" x="0px" y="0px"
	 viewBox="0 0 1190.55 841.89" style="enable-background:new 0 0 1190.55 841.89;" xml:space="preserve">
<style type="text/css">
	.st0{fill:#302B2B;}
	.st1{fill:#D1CFCF;stroke:#302B2B;stroke-width:5;stroke-miterlimit:10;}
	.st2{fill:url(#SVGID_1_);}
	.st3{fill:url(#SVGID_2_);}
</style>
<g>
	<polygon class="st0" points="806.01,404.9 846.5,369.46 846.5,409.96 861.69,409.96 861.69,339.09 841.44,339.09 841.44,354.28 
		806.01,384.65 	"/>
	<polygon class="st0" points="806.01,384.65 806.01,354.28 841.44,354.28 841.44,339.09 790.82,339.09 790.82,409.96 806.01,409.96 
			"/>
</g>
<g>
	<polygon class="st0" points="782.32,354.28 762.07,354.28 726.64,354.28 726.64,384.65 726.64,409.96 711.45,409.96 711.45,339.09 
		782.32,339.09 	"/>
	<polygon class="st0" points="726.64,384.65 762.07,354.28 782.32,354.28 726.64,404.9 	"/>
</g>
<g>
	<line class="st0" x1="306.7" y1="382.12" x2="306.7" y2="394.77"/>
	<polygon class="st0" points="306.7,366.93 306.7,354.28 347.19,354.28 362.38,354.28 362.38,339.09 291.51,339.09 291.51,409.96 
		306.7,409.96 	"/>
	<polygon class="st0" points="362.38,409.96 362.38,354.28 347.19,354.28 347.19,366.93 306.7,366.93 306.7,382.12 347.19,382.12 
		347.19,394.77 306.7,394.77 306.7,409.96 	"/>
</g>
<rect x="370.88" y="339.09" class="st0" width="15.19" height="70.87"/>
<g>
	<polygon class="st0" points="488.53,379.59 488.53,339.09 473.34,339.09 473.34,409.96 488.53,409.96 	"/>
	<polygon class="st0" points="523.96,409.96 544.21,409.96 511.31,377.06 501.18,387.18 	"/>
	<polygon class="st0" points="544.21,339.09 529.02,339.09 488.53,379.59 488.53,399.84 544.21,344.15 	"/>
</g>
<g>
	<polygon class="st0" points="632.08,409.96 647.27,409.96 647.27,364.4 647.27,344.15 647.27,339.09 632.08,339.09 	"/>
	<polygon class="st0" points="687.76,409.96 702.95,409.96 702.95,339.09 687.76,339.09 687.76,344.15 672.58,359.34 662.45,359.34 
		647.27,344.15 647.27,364.4 662.45,379.59 672.58,379.59 687.76,364.4 	"/>
</g>
<polygon class="st0" points="414.82,394.77 455.31,354.28 465.44,354.28 465.44,339.09 394.57,339.09 394.57,354.28 435.07,354.28 
	394.57,394.77 394.57,409.96 465.44,409.96 465.44,394.77 "/>
<polygon class="st0" points="920.81,394.77 880.32,354.28 870.19,354.28 870.19,339.09 941.06,339.09 941.06,354.28 900.56,354.28 
	941.06,394.77 941.06,409.96 870.19,409.96 870.19,394.77 "/>
<line class="st1" x1="291.51" y1="415.25" x2="941.06" y2="415.25"/>
<g>
	<g>
		<line class="st0" x1="567.9" y1="353.88" x2="567.9" y2="384.26"/>
		<polygon class="st0" points="608.39,364.01 608.39,394.38 578.02,394.38 562.84,409.56 623.58,409.56 623.58,348.82 		"/>
		<polygon class="st0" points="552.71,399.44 552.71,338.7 613.46,338.7 598.27,353.88 567.9,353.88 567.9,384.26 		"/>
	</g>
	<g>
		<linearGradient id="SVGID_1_" gradientUnits="userSpaceOnUse" x1="587.7704" y1="363.1362" x2="610.4313" y2="363.1362">
			<stop  offset="3.409785e-07" style="stop-color:#FFFFFF"/>
			<stop  offset="0.3631" style="stop-color:#A1A1A1"/>
			<stop  offset="0.9955" style="stop-color:#000000"/>
		</linearGradient>
		<path class="st2" d="M587.77,369.91c0.09,0.01,4.22,0.15,5.07,4.92l17.59-23.4L587.77,369.91z"/>
		<linearGradient id="SVGID_2_" gradientUnits="userSpaceOnUse" x1="565.861" y1="385.2828" x2="588.8409" y2="385.2828">
			<stop  offset="3.409785e-07" style="stop-color:#FFFFFF"/>
			<stop  offset="0.3631" style="stop-color:#EFE7A1"/>
			<stop  offset="0.9955" style="stop-color:#D4BD00"/>
		</linearGradient>
		<path class="st3" d="M588.84,378.75c-0.09-0.01-4.21-0.23-4.99-5.01l-17.99,23.09L588.84,378.75z"/>
	</g>
</g>
</svg>
