<?xml version="1.0" encoding="UTF-8"?><svg xmlns="http://www.w3.org/2000/svg" viewBox="0 0 1539 521"><defs><style>.c{fill:#333;}.d{stroke:#34a9e0;stroke-miterlimit:10;stroke-width:7.93px;}.d,.e{fill:#32a9de;}</style></defs><g id="a"/><g id="b"><g><path class="c" d="M34.09,342.86V178.12H107.98c18.98,0,33.57,3.81,43.78,11.41,10.2,7.61,15.3,18,15.3,31.18,0,8.94-2,16.47-6,22.59-4,6.12-9.38,10.83-16.12,14.12-6.75,3.3-14.04,4.94-21.89,4.94l4.24-7.06c9.41,0,17.73,1.65,24.95,4.94,7.22,3.29,12.94,8.12,17.18,14.47,4.24,6.36,6.35,14.24,6.35,23.65,0,14.12-5.3,25.06-15.89,32.83-10.59,7.77-26.32,11.65-47.19,11.65H34.09Zm23.53-19.06h54.13c13.02,0,22.98-2.2,29.89-6.59,6.9-4.39,10.36-11.3,10.36-20.71s-3.45-16.55-10.36-20.95c-6.91-4.39-16.87-6.59-29.89-6.59H55.5v-19.06h50.37c11.92,0,21.18-2.2,27.77-6.59,6.59-4.39,9.88-10.98,9.88-19.77s-3.3-15.37-9.88-19.77c-6.59-4.39-15.85-6.59-27.77-6.59H57.62v126.62Z"/><path class="c" d="M212.24,342.86V178.12h23.53v164.74h-23.53Z"/><path class="c" d="M270.61,342.86v-16l110.85-137.44,2.59,9.18h-111.79v-20.47h132.97v16l-110.38,137.44-2.83-9.18h116.26v20.48h-137.68Z"/><path class="c" d="M439.82,342.86V178.12h23.53v164.74h-23.53Zm20.71-39.77l-1.18-28.71,93.44-96.26h26.83l-72.25,76.25-13.18,14.59-33.65,34.12Zm96.02,39.77l-67.55-78.61,15.77-17.42,79.31,96.02h-27.53Z"/><path class="c" d="M677.52,344.75c-12.55,0-24.2-2.12-34.95-6.35-10.75-4.24-20.05-10.16-27.89-17.77-7.85-7.61-13.97-16.51-18.36-26.71-4.39-10.2-6.59-21.34-6.59-33.42s2.2-23.22,6.59-33.42c4.39-10.2,10.51-19.1,18.36-26.71,7.84-7.61,17.1-13.53,27.77-17.77,10.67-4.24,22.36-6.36,35.07-6.36s24.12,2.08,34.71,6.24c10.59,4.16,19.85,10.04,27.77,17.65,7.92,7.61,14.04,16.51,18.36,26.71,4.32,10.2,6.47,21.42,6.47,33.65s-2.16,23.46-6.47,33.65c-4.32,10.2-10.44,19.1-18.36,26.71-7.93,7.61-17.18,13.5-27.77,17.65-10.59,4.16-22.16,6.24-34.71,6.24Zm0-20.95c9.1,0,17.53-1.57,25.3-4.71,7.77-3.14,14.51-7.57,20.24-13.3,5.73-5.73,10.2-12.43,13.42-20.12,3.21-7.69,4.82-16.08,4.82-25.18s-1.61-17.49-4.82-25.18c-3.22-7.69-7.69-14.39-13.42-20.12-5.73-5.73-12.47-10.16-20.24-13.3-7.77-3.14-16.2-4.71-25.3-4.71s-17.77,1.57-25.53,4.71c-7.77,3.14-14.55,7.57-20.36,13.3-5.81,5.73-10.32,12.44-13.53,20.12-3.22,7.69-4.82,16.08-4.82,25.18s1.61,17.5,4.82,25.18c3.22,7.69,7.73,14.4,13.53,20.12,5.8,5.73,12.59,10.16,20.36,13.3,7.77,3.14,16.28,4.71,25.53,4.71Z"/><path class="c" d="M800.84,342.86V178.12h19.3l73.9,124.5h-10.36l72.96-124.5h19.3l.24,164.74h-22.59l-.24-129.21h5.42l-64.96,109.2h-10.83l-65.43-109.2h5.88v129.21h-22.59Z"/><path class="c" d="M1025.6,342.86V178.12h64.25c14.44,0,26.75,2.28,36.95,6.82,10.2,4.55,18.04,11.14,23.53,19.77,5.49,8.63,8.24,18.91,8.24,30.83s-2.75,22.16-8.24,30.71c-5.49,8.55-13.34,15.14-23.53,19.77-10.2,4.63-22.52,6.94-36.95,6.94h-51.3l10.59-11.06v60.95h-23.54Zm23.54-58.6l-10.59-11.77h50.6c15.06,0,26.48-3.21,34.24-9.65,7.77-6.43,11.65-15.53,11.65-27.3s-3.88-20.87-11.65-27.3c-7.77-6.43-19.18-9.65-34.24-9.65h-50.6l10.59-11.77v97.43Z"/><path class="c" d="M1415.33,344.75c-12.56,0-24.56-1.92-36.01-5.77-11.46-3.84-20.48-8.83-27.06-14.95l8.71-18.36c6.27,5.49,14.28,10.04,24,13.65,9.73,3.61,19.85,5.41,30.36,5.41,9.57,0,17.34-1.1,23.3-3.3,5.96-2.2,10.36-5.21,13.18-9.06,2.83-3.84,4.24-8.2,4.24-13.06,0-5.65-1.85-10.2-5.53-13.65-3.69-3.45-8.47-6.24-14.36-8.36-5.89-2.12-12.36-3.96-19.42-5.53-7.06-1.57-14.16-3.41-21.3-5.53-7.14-2.12-13.65-4.82-19.53-8.12-5.89-3.3-10.63-7.73-14.24-13.3-3.61-5.57-5.41-12.75-5.41-21.53s2.24-16.28,6.71-23.42c4.47-7.14,11.38-12.86,20.71-17.18,9.33-4.31,21.22-6.47,35.65-6.47,9.57,0,19.06,1.26,28.48,3.77,9.41,2.51,17.57,6.12,24.48,10.83l-7.77,18.83c-7.06-4.71-14.51-8.12-22.36-10.24-7.85-2.12-15.46-3.18-22.83-3.18-9.26,0-16.87,1.18-22.83,3.53-5.97,2.35-10.32,5.49-13.06,9.41-2.75,3.92-4.12,8.32-4.12,13.18,0,5.81,1.84,10.44,5.53,13.89,3.69,3.45,8.47,6.2,14.36,8.24,5.89,2.04,12.36,3.88,19.42,5.53,7.06,1.65,14.16,3.49,21.3,5.53,7.14,2.04,13.65,4.71,19.53,8,5.88,3.3,10.63,7.69,14.24,13.18,3.61,5.49,5.41,12.55,5.41,21.18s-2.28,16.04-6.83,23.18c-4.55,7.14-11.57,12.87-21.06,17.18-9.5,4.32-21.46,6.47-35.89,6.47Z"/><path class="d" d="M1422.78,364.69c-36.89,61.88-104.74,101.12-176.69,101.12s-139.54-39.24-176.46-101.12h21.42c34.54,51.22,93,82.61,155.04,82.61s120.5-31.39,155.01-82.61h21.68Z"/><path class="d" d="M1422.54,156.29h-21.45c-34.48-51.19-92.98-82.58-155.01-82.58s-120.53,31.39-155.01,82.58h-21.45c36.89-61.88,104.5-101.09,176.46-101.09s139.57,39.22,176.46,101.09Z"/><path class="e" d="M1159.98,342.86l86.2-164.74h0l86.55,164.74h0l-86.37-86.55h0l-86.37,86.55h0Z"/></g></g></svg>